<svg xmlns="http://www.w3.org/2000/svg" viewBox="0 0 241.39 24"><defs><style>.a{fill:#fff;}</style></defs><title>bellevuecollege-s</title><path class="a" d="M24.26,12a12,12,0,1,0-12,12,12,12,0,0,0,12-12ZM7.86,21.29h8.49a7.41,7.41,0,0,0,2.94-.57l.1,0a10.69,10.69,0,0,1-11.53.61Zm10.51-5.06A3.48,3.48,0,0,1,14.65,20h0c-2.33,0-2.7-.54-2.7-3.3V12.51H14.6a3.5,3.5,0,0,1,3.77,3.72Zm-4.76-5.05H12V4.78h1.66A3,3,0,0,1,16.89,8a3,3,0,0,1-3.28,3.19ZM5.74,4.31H6c2,.08,2.28.72,2.28,3.46V17c0,2.43-.24,3.21-1.68,3.41h0A10.66,10.66,0,0,1,5.74,4.31ZM23.85,12a10.61,10.61,0,0,1-1.8,5.93c0-.06.05-.12.06-.13a4.73,4.73,0,0,0,.25-1.51,4.91,4.91,0,0,0-3.69-4.7,4.17,4.17,0,0,0,2.2-3.69c0-2.47-2.08-4.46-5.35-4.46H6.75A10.7,10.7,0,0,1,23.85,12Z" transform="translate(-0.26)"/><path class="a" d="M155.21,16.47V13h-.46c-.43,2-1.71,3.16-3.27,3.16-2.17,0-2.78-2.29-2.78-4.25s-.07-4.25,2.1-4.25a4.11,4.11,0,0,1,3.95,3.16h.46l-.68-3.48h-.45c-.09.4.48.74.28.9a5.71,5.71,0,0,0-3.63-1.34c-2.67,0-4.17,2.26-4.17,5a5,5,0,0,0,4.86,5,4.14,4.14,0,0,0,2.94-1.34,1.72,1.72,0,0,1,.41.9Zm16.25-4.57c0-2.75-3.05-5-6-5s-4.58,2.26-4.58,5a5.28,5.28,0,0,0,10.54,0Zm-2.13,0c0,1.91-.9,4.25-3.15,4.25S163,13.81,163,11.9s.23-4.25,2.46-4.25,3.83,2.34,3.83,4.25Zm8.76-2.44v4.87c0,1.58-.19,1.85-1.5,1.85v.46h9l.13-2.23h-.46l-.08.32c-.2.84-.38,1.2-1.83,1.2h-1.82c-1.31,0-1.52-.27-1.52-1.85V9.46c0-1.58.21-1.85,1.52-1.85V7.16h-5v.45c1.31,0,1.5.27,1.5,1.85Zm13.42,0v4.87c0,1.58-.19,1.85-1.5,1.85v.46h9.06l.12-2.23h-.46l-.07.32c-.21.84-.38,1.2-1.84,1.2H195c-1.31,0-1.51-.27-1.51-1.85V9.46c0-1.58.2-1.85,1.51-1.85V7.16h-5v.45c1.31,0,1.5.27,1.5,1.85Zm12.92,7.18h8.67l.12-2.23h-.46l-.08.32c-.2.84-.38,1.2-1.83,1.2h-1.42c-1.31,0-1.52-.27-1.52-1.85V12h.87c1.58,0,1.83.19,1.83,1.51h.46V9.75h-.46c0,1.31-.25,1.52-1.83,1.52h-.87V7.87h2.42c1.45,0,1.61.36,1.83,1.2l.08.32h.46l-.13-2.23h-8.14v.45c1.31,0,1.5.27,1.5,1.85v4.87c0,1.58-.19,1.85-1.5,1.85v.46Zm20.36-2.45c0,1.45-1.14,2-2.37,2-2.17,0-2.78-2.29-2.78-4.25s.61-4.25,2.78-4.25c1.56,0,2.85,1.1,3.27,3.16h.46V7.33h-.44a1.72,1.72,0,0,1-.41.9,4.06,4.06,0,0,0-2.94-1.34,5,5,0,0,0,0,10c1.58,0,2.24-.82,4.11-.82V15c0-1.58.19-1.83,1.5-1.83v-.46h-4.66v.46c1.09,0,1.48.33,1.48,1Zm8.07,2.45h8.66l.13-2.23h-.46l-.08.32c-.2.84-.38,1.2-1.83,1.2h-1.42c-1.32,0-1.52-.27-1.52-1.85V12h.87c1.58,0,1.83.19,1.83,1.51h.46V9.75H239c0,1.31-.25,1.52-1.83,1.52h-.87V7.87h2.42c1.45,0,1.61.36,1.83,1.2l.08.32h.46L241,7.16h-8.14v.45c1.31,0,1.5.27,1.5,1.85v4.87c0,1.58-.19,1.85-1.5,1.85v.46Z" transform="translate(-0.26)"/><path class="a" d="M33.82,16.36h.12c-1.42,0-1.64-.27-1.64-1.88V12.11h1.52A2,2,0,0,1,36,14.24a2,2,0,0,1-2.17,2.12ZM32.3,7.69h1a1.73,1.73,0,0,1,1.87,1.84,1.71,1.71,0,0,1-1.87,1.82h-1V7.69Zm3.86,3.9a2.4,2.4,0,0,0,1.26-2.11c0-1.41-1.19-2.55-3.07-2.55h-5.8v.49c1.41,0,1.62.29,1.62,2v5.24c0,1.7-.21,2-1.62,2v.49h6.28c2.11,0,3.45-1.28,3.45-2.86a2.8,2.8,0,0,0-2.12-2.68Zm6.49,5.54H52l.13-2.4h-.49l-.09.34c-.22.9-.41,1.29-2,1.29H48.05c-1.42,0-1.64-.28-1.64-2V12.11h.94c1.7,0,2,.21,2,1.64h.49v-4h-.49c0,1.41-.28,1.63-2,1.63h-.94V7.69H49c1.57,0,1.74.39,2,1.29l.09.34h.49l-.14-2.39H42.65v.49c1.42,0,1.62.29,1.62,2v5.24c0,1.7-.2,2-1.62,2v.49ZM58.11,9.41v5.24c0,1.7-.21,2-1.62,2v.49h9.78l.13-2.4h-.49l-.09.34c-.22.9-.41,1.29-2,1.29h-2c-1.42,0-1.64-.28-1.64-2v-5c0-1.7.22-2,1.64-2V6.93H56.49v.49c1.41,0,1.62.29,1.62,2Zm13.7,0v5.24c0,1.7-.21,2-1.63,2v.49H80l.13-2.4h-.49l-.09.34c-.22.9-.41,1.29-2,1.29h-2c-1.42,0-1.64-.28-1.64-2v-5c0-1.7.22-2,1.64-2V6.93h-5.4v.49c1.42,0,1.63.29,1.63,2Zm12.07,7.72h9.36l.13-2.4h-.49l-.09.34c-.22.9-.41,1.29-2,1.29H89.28c-1.42,0-1.64-.28-1.64-2V12.11h.94c1.7,0,2,.21,2,1.64h.49v-4h-.49c0,1.41-.28,1.63-2,1.63h-.94V7.69h2.61c1.57,0,1.74.39,2,1.29l.08.34h.5l-.14-2.39H83.88v.49c1.42,0,1.62.29,1.62,2v5.24c0,1.7-.2,2-1.62,2v.49Zm24.5-9.71V6.93h-4.13v.49c1.42,0,1.68.37,1.28,1.29l-2.4,5.53-2.39-5.53c-.4-.9-.22-1.29,1.28-1.29V6.93h-5.6v.49c1.36,0,1.6.39,2.08,1.5l3.72,8.5h.36l3.7-8.5c.53-1.21.93-1.5,2.1-1.5Zm11.7,2v3.74c0,2.19-1,3.21-2.5,3.21s-2.65-1-2.65-3.21V9.41c0-1.7.2-2,1.64-2V6.93h-5.41v.49c1.41,0,1.64.29,1.64,2v3.93a4.11,4.11,0,0,0,8.21,0V9.41c0-1.7.2-2,1.62-2V6.93h-4.18v.49c1.43,0,1.63.29,1.63,2Zm7.6,7.72H137l.13-2.4h-.49l-.09.34c-.22.9-.41,1.29-2,1.29h-1.53c-1.42,0-1.64-.28-1.64-2V12.11h.94c1.7,0,2,.21,2,1.64h.49v-4h-.49c0,1.41-.28,1.63-2,1.63h-.94V7.69h2.61c1.57,0,1.74.39,2,1.29l.08.34h.5l-.14-2.39h-8.79v.49c1.42,0,1.62.29,1.62,2v5.24c0,1.7-.2,2-1.62,2v.49Z" transform="translate(-0.26)"/></svg>