<svg xmlns="http://www.w3.org/2000/svg" xmlns:xlink="http://www.w3.org/1999/xlink" viewBox="0 0 300 257"><defs><style>.a,.d{fill:none;}.b{fill:#003d79;}.c{clip-path:url(#a);}.d{stroke:#003d79;stroke-width:0.6px;}.e{fill:#a7a9ac;}.f{fill:#fff;}</style><clipPath id="a"><rect class="a" x="0.25501" width="297.74499" height="256.67674"/></clipPath></defs><title>bellevuecollege-vert</title><path class="b" d="M20.3614,254.05859V246.847h-.95063c-.88515,4.19513-3.54028,6.5566-6.78552,6.5566-4.4909,0-5.76934-4.75359-5.76934-8.81944,0-4.06365,1.27844-8.81731,5.76934-8.81731,3.24524,0,5.90037,2.29568,6.78552,6.55648h.95063v-7.21158h-.91786a3.43365,3.43365,0,0,1-.85231,1.86868,8.36337,8.36337,0,0,0-6.09714-2.78647,10.39661,10.39661,0,0,0,0,20.78254A8.4886,8.4886,0,0,0,18.59123,252.19a3.43315,3.43315,0,0,1,.85231,1.86855Zm50.29629-9.47442c0-5.70234-4.91684-10.3902-10.94855-10.3902-5.99863,0-10.91578,4.68786-10.91578,10.3902,0,5.70442,4.91715,10.39234,10.91578,10.39234,6.03171,0,10.94855-4.68792,10.94855-10.39234Zm-4.42529,0c0,3.96721-1.86843,8.81944-6.52326,8.81944-4.62206,0-6.52333-4.85223-6.52333-8.81944,0-3.96514,1.90127-8.81731,6.52333-8.81731,4.65483,0,6.52326,4.85217,6.52326,8.81731Zm34.759-5.04724v10.09662c0,3.27726-.39323,3.83574-3.114,3.83574v.94868h18.78293l.26225-4.62018h-.95051l-.16387.655c-.42628,1.73721-.78688,2.49082-3.80252,2.49082H108.2358c-2.72073,0-3.14686-.55647-3.14686-3.8358v-9.57092c0-3.27727.42613-3.8358,3.14686-3.8358v-.9507H97.8774v.9507c2.72073,0,3.114.55853,3.114,3.8358Zm44.42914,0v10.09662c0,3.27726-.39326,3.83574-3.114,3.83574v.94868h18.783l.26222-4.62018h-.95057l-.16384.655c-.42631,1.73721-.78689,2.49082-3.80249,2.49082h-3.76988c-2.7208,0-3.14683-.55647-3.14683-3.8358v-9.57092c0-3.27727.426-3.8358,3.14683-3.8358v-.9507H142.30647v.9507c2.72077,0,3.114.55853,3.114,3.8358Zm41.315,14.881H204.699l.26222-4.62018h-.95054l-.16383.655c-.42632,1.73721-.78686,2.49082-3.80253,2.49082H197.094c-2.72077,0-3.14689-.55647-3.14689-3.8358v-4.35937h1.80294c3.27805,0,3.80249.39429,3.80249,3.14786h.95073v-7.77011h-.95073c0,2.72074-.52444,3.14786-3.80249,3.14786h-1.80294v-7.04726h5.01547c3.01564,0,3.34357.75361,3.80253,2.49075l.16387.655h.95053l-.26222-4.62219H186.73555v.9507c2.7208,0,3.114.55853,3.114,3.8358v10.09662c0,3.27726-.39319,3.83574-3.114,3.83574v.94868Zm60.884-5.08014c0,3.01652-2.35937,4.06578-4.9159,4.06578-4.4908,0-5.77008-4.75359-5.77008-8.81944,0-4.06365,1.27928-8.81731,5.77008-8.81731,3.2444,0,5.8995,2.29568,6.78449,6.55648h.95075v-7.21158h-.91792a3.42929,3.42929,0,0,1-.85215,1.86868,8.36321,8.36321,0,0,0-6.09657-2.78647,10.3966,10.3966,0,0,0,0,20.78254c3.27726,0,4.65508-1.70431,8.52165-1.70431v-2.23006c0-3.27721.39426-3.80284,3.11506-3.80284v-.95076h-9.66953v.95076c2.26081,0,3.08012.68988,3.08012,2.09853Zm31.2509,5.08014h17.9653l.26078-4.62018h-.95072l-.16221.655c-.42713,1.73721-.78852,2.49082-3.8029,2.49082h-2.95075c-2.72077,0-3.14586-.55647-3.14586-3.8358v-4.35937h1.80288c3.27727,0,3.80087.39429,3.80087,3.14786h.95078v-7.77011h-.95078c0,2.72074-.5236,3.14786-3.80087,3.14786h-1.80288v-7.04726h5.01447c3.01642,0,3.34291.75361,3.80287,2.49075l.16428.655h.95073l-.26282-4.62219H278.87041v.9507c2.7208,0,3.115.55853,3.115,3.8358v10.09662c0,3.27726-.39422,3.83574-3.115,3.83574v.94868Z"/><path class="b" d="M15.56368,214.19568h.30675c-3.63753,0-4.20722-.69-4.20722-4.78437v-5.989h3.90047c3.769,0,5.56568,2.4571,5.56568,5.38526,0,2.9734-1.79668,5.38815-5.56568,5.38815Zm-3.90047-21.97726h2.45416a4.42064,4.42064,0,0,1,4.82084,4.65389c0,2.54233-1.53386,4.61072-4.82084,4.61072H11.66321v-9.26461Zm9.90462,9.86789a6.047,6.047,0,0,0,3.24286-5.34315c0-3.57668-3.06778-6.46373-7.88849-6.46373H2.02161v1.24967c3.63746,0,4.16341.7325,4.16341,5.04161v13.2718c0,4.31-.52595,5.04111-4.16341,5.04111v1.25054h16.1277c5.43427,0,8.85285-3.23208,8.85285-7.24034a7.11824,7.11824,0,0,0-5.43433-6.80751Zm19.23941,14.04785H64.82356l.35049-6.07608H63.9032l-.21908.86246c-.56982,2.2834-1.05177,3.27514-5.08384,3.27514H54.65607c-3.63741,0-4.20722-.73306-4.20722-5.04311v-5.7303h2.41054c4.38237,0,5.08359.51705,5.08359,4.13678h1.27085v-10.2128H57.943c0,3.57662-.70122,4.13678-5.08359,4.13678H50.44885v-9.26461h6.70524c4.03207,0,4.47029.99118,5.08384,3.275l.21908.86183h1.27085l-.35049-6.07583H40.80724v1.24967c3.63759,0,4.16354.7325,4.16354,5.04161v13.2718c0,4.31-.52595,5.04111-4.16354,5.04111v1.25054Zm42.24751-19.56345v13.2718c0,4.31-.52582,5.04111-4.16322,5.04111v1.25054h25.1118l.35074-6.07608H103.083l-.21911.86246c-.56957,2.2834-1.05178,3.27514-5.08366,3.27514H92.7401c-3.6374,0-4.207-.73306-4.207-5.04311V196.57071c0-4.30911.56956-5.04161,4.207-5.04161v-1.24967H78.89153v1.24967c3.6374,0,4.16322.7325,4.16322,5.04161Zm37.7338,0v13.2718c0,4.31-.52591,5.04111-4.16335,5.04111v1.25054H141.737l.35054-6.07608h-1.27085l-.21911.86246c-.56962,2.2834-1.05174,3.27514-5.08362,3.27514h-5.04013c-3.6374,0-4.20722-.73306-4.20722-5.04311V196.57071c0-4.30911.56982-5.04161,4.20722-5.04161v-1.24967H116.6252v1.24967c3.63744,0,4.16335.7325,4.16335,5.04161ZM154.359,216.13416h24.01635l.35049-6.07608h-1.27107l-.21908.86246c-.56963,2.2834-1.05177,3.27514-5.08362,3.27514h-3.94421c-3.63766,0-4.20722-.73306-4.20722-5.04311v-5.7303h2.41026c4.38259,0,5.08362.51705,5.08362,4.13678h1.2711v-10.2128h-1.2711c0,3.57662-.701,4.13678-5.08362,4.13678h-2.41026v-9.26461h6.70521c4.03185,0,4.47007.99118,5.08362,3.275l.21908.86183h1.27107l-.35074-6.07583H154.359v1.24967c3.63743,0,4.16332.7325,4.16332,5.04161v13.2718c0,4.31-.52589,5.04111-4.16332,5.04111v1.25054Zm65.47579-24.60506v-1.24967h-10.6059v1.24967c3.63658,0,4.29369.94781,3.28547,3.27476l-6.17873,14.00367-6.13539-14.00367c-1.008-2.28377-.56985-3.27476,3.28691-3.27476v-1.24967H189.11238v1.24967c3.506,0,4.11958.991,5.34669,3.79181l9.55391,21.54631h.92036l9.50914-21.54631c1.35936-3.05931,2.36758-3.79181,5.39228-3.79181Zm32.60615,5.04161v9.47911c0,5.5606-2.67355,8.14586-6.44361,8.14586-3.768,0-6.79272-2.58526-6.79272-8.14586v-9.47911c0-4.30911.52569-5.04161,4.2075-5.04161v-1.24967H229.51866v1.24967c3.63866,0,4.20744.7325,4.20744,5.04161v9.95343c0,6.76609,4.69,10.34308,10.51964,10.34308,5.78444,0,10.56069-3.577,10.56069-10.34308v-9.95343c0-4.30911.52567-5.04161,4.16435-5.04161v-1.24967h-10.7373v1.24967c3.68176,0,4.20743.7325,4.20743,5.04161Zm19.50126,19.56345H295.9589l.35114-6.07608h-1.271l-.21971.86246c-.57088,2.2834-1.0514,3.27514-5.08428,3.27514H285.7904c-3.63659,0-4.2074-.73306-4.2074-5.04311v-5.7303h2.41067c4.384,0,5.08428.51705,5.08428,4.13678h1.271v-10.2128h-1.271c0,3.57662-.70026,4.13678-5.08428,4.13678H281.583v-9.26461h6.7064c4.03084,0,4.47031.99118,5.08425,3.275l.2177.86183h1.271l-.349-6.07583H271.94217v1.24967c3.63659,0,4.16433.7325,4.16433,5.04161v13.2718c0,4.31-.52774,5.04111-4.16433,5.04111v1.25054Z"/><g class="c"><path class="d" d="M15.56368,214.19568h.30675c-3.63753,0-4.20722-.69-4.20722-4.78437v-5.989h3.90047c3.769,0,5.56568,2.4571,5.56568,5.38526,0,2.9734-1.79668,5.38815-5.56568,5.38815Zm-3.90047-21.97726h2.45416a4.42064,4.42064,0,0,1,4.82084,4.65389c0,2.54233-1.53386,4.61072-4.82084,4.61072H11.66321v-9.26461Zm9.90462,9.86789a6.047,6.047,0,0,0,3.24286-5.34315c0-3.57668-3.06778-6.46373-7.88849-6.46373H2.02161v1.24967c3.63746,0,4.16341.7325,4.16341,5.04161v13.2718c0,4.31-.52595,5.04111-4.16341,5.04111v1.25054h16.1277c5.43427,0,8.85285-3.23208,8.85285-7.24034a7.11824,7.11824,0,0,0-5.43433-6.80751Zm19.23941,14.04785H64.82356l.35049-6.07608H63.9032l-.21908.86246c-.56982,2.2834-1.05177,3.27514-5.08384,3.27514H54.65607c-3.63741,0-4.20722-.73306-4.20722-5.04311v-5.7303h2.41054c4.38237,0,5.08359.51705,5.08359,4.13678h1.27085v-10.2128H57.943c0,3.57662-.70122,4.13678-5.08359,4.13678H50.44885v-9.26461h6.70524c4.03207,0,4.47029.99118,5.08384,3.275l.21908.86183h1.27085l-.35049-6.07583H40.80724v1.24967c3.63759,0,4.16354.7325,4.16354,5.04161v13.2718c0,4.31-.52595,5.04111-4.16354,5.04111v1.25054Zm42.24751-19.56345v13.2718c0,4.31-.52582,5.04111-4.16322,5.04111v1.25054h25.1118l.35074-6.07608H103.083l-.21911.86246c-.56957,2.2834-1.05178,3.27514-5.08366,3.27514H92.7401c-3.6374,0-4.207-.73306-4.207-5.04311V196.57071c0-4.30911.56956-5.04161,4.207-5.04161v-1.24967H78.89153v1.24967c3.6374,0,4.16322.7325,4.16322,5.04161Zm37.7338,0v13.2718c0,4.31-.52591,5.04111-4.16335,5.04111v1.25054H141.737l.35054-6.07608h-1.27085l-.21911.86246c-.56962,2.2834-1.05174,3.27514-5.08362,3.27514h-5.04013c-3.6374,0-4.20722-.73306-4.20722-5.04311V196.57071c0-4.30911.56982-5.04161,4.20722-5.04161v-1.24967H116.6252v1.24967c3.63744,0,4.16335.7325,4.16335,5.04161ZM154.359,216.13416h24.01635l.35049-6.07608h-1.27107l-.21908.86246c-.56963,2.2834-1.05177,3.27514-5.08362,3.27514h-3.94421c-3.63766,0-4.20722-.73306-4.20722-5.04311v-5.7303h2.41026c4.38259,0,5.08362.51705,5.08362,4.13678h1.2711v-10.2128h-1.2711c0,3.57662-.701,4.13678-5.08362,4.13678h-2.41026v-9.26461h6.70521c4.03185,0,4.47007.99118,5.08362,3.275l.21908.86183h1.27107l-.35074-6.07583H154.359v1.24967c3.63743,0,4.16332.7325,4.16332,5.04161v13.2718c0,4.31-.52589,5.04111-4.16332,5.04111v1.25054Zm65.47579-24.60506v-1.24967h-10.6059v1.24967c3.63658,0,4.29369.94781,3.28547,3.27476l-6.17873,14.00367-6.13539-14.00367c-1.008-2.28377-.56985-3.27476,3.28691-3.27476v-1.24967H189.11238v1.24967c3.506,0,4.11958.991,5.34669,3.79181l9.55391,21.54631h.92036l9.50914-21.54631c1.35936-3.05931,2.36758-3.79181,5.39228-3.79181Zm32.60615,5.04161v9.47911c0,5.5606-2.67355,8.14586-6.44361,8.14586-3.768,0-6.79272-2.58526-6.79272-8.14586v-9.47911c0-4.30911.52569-5.04161,4.2075-5.04161v-1.24967H229.51866v1.24967c3.63866,0,4.20744.7325,4.20744,5.04161v9.95343c0,6.76609,4.69,10.34308,10.51964,10.34308,5.78444,0,10.56069-3.577,10.56069-10.34308v-9.95343c0-4.30911.52567-5.04161,4.16435-5.04161v-1.24967h-10.7373v1.24967c3.68176,0,4.20743.7325,4.20743,5.04161Zm19.50126,19.56345H295.9589l.35114-6.07608h-1.271l-.21971.86246c-.57088,2.2834-1.0514,3.27514-5.08428,3.27514H285.7904c-3.63659,0-4.2074-.73306-4.2074-5.04311v-5.7303h2.41067c4.384,0,5.08428.51705,5.08428,4.13678h1.271v-10.2128h-1.271c0,3.57662-.70026,4.13678-5.08428,4.13678H281.583v-9.26461h6.7064c4.03084,0,4.47031.99118,5.08425,3.275l.2177.86183h1.271l-.349-6.07583H271.94217v1.24967c3.63659,0,4.16433.7325,4.16433,5.04161v13.2718c0,4.31-.52774,5.04111-4.16433,5.04111v1.25054Z"/></g><path class="e" d="M236.80829,89.38674a87.43818,87.43818,0,1,0-87.4381,87.43834,87.43809,87.43809,0,0,0,87.4381-87.43834Zm-2.998,0a77.89975,77.89975,0,1,1-77.89932-77.90021,77.8995,77.8995,0,0,1,77.89932,77.90021Z"/><path class="b" d="M155.91094,167.28694a77.90021,77.90021,0,1,0-77.90017-77.9002,77.8995,77.8995,0,0,0,77.90017,77.9002Z"/><path class="f" d="M173.12022,27.02268H109.22535a78.32856,78.32856,0,0,0-7.3919,6.32067c15.79013.36076,18.18445,4.66944,18.18445,25.32395v66.75708c0,17.9047-1.80125,23.52126-12.55971,24.93749a78.03189,78.03189,0,0,0,9.90239,6.70719h61.82851a53.63643,53.63643,0,0,0,22.20007-4.45443,78.28941,78.28941,0,0,0,19.5298-20.31544,34.02447,34.02447,0,0,0,2.05135-11.643c0-15.60558-9.96932-29.04376-26.87527-34.24567,10.1872-5.852,16.03941-15.60552,16.03941-26.87629,0-17.98975-15.17247-32.51154-39.01423-32.51154Zm-26.00917,66.1068h19.29017c18.63986,0,27.52642,12.35463,27.52642,27.09318,0,14.85072-8.774,26.9092-27.1482,27.07733.38545.00351.73844.01567,1.13887.01567h-1.51709c.13019,0,.24887-.01467.37822-.01567-16.93509-.15767-19.66839-3.9105-19.66839-24.043V93.12948Zm12.13753-56.35327c16.25586,0,23.8418,10.83714,23.8418,23.40834,0,12.78785-7.58594,23.19165-23.8418,23.19165H147.11105v-46.6Z"/></svg>